<svg width="196" height="114" viewBox="0 0 196 114" fill="none" xmlns="http://www.w3.org/2000/svg">
<path d="M195.444 81.9689C195.703 80.8952 195.043 79.8147 193.969 79.5558L176.471 75.3354C175.397 75.0764 174.316 75.7369 174.058 76.8107C173.799 77.8845 174.459 78.9649 175.533 79.2239L191.087 82.9753L187.335 98.5293C187.076 99.6031 187.737 100.684 188.811 100.942C189.884 101.201 190.965 100.541 191.224 99.4672L195.444 81.9689ZM11.5 1.5C9.62891 0.793693 9.62852 0.794733 9.62798 0.79616C9.62761 0.797155 9.62692 0.798973 9.62618 0.80096C9.62468 0.804934 9.62261 0.810457 9.61997 0.817517C9.61468 0.831637 9.60712 0.851904 9.59735 0.878226C9.57782 0.930868 9.54948 1.00773 9.51292 1.10806C9.4398 1.30871 9.33382 1.60327 9.19978 1.98572C8.93173 2.75057 8.55133 3.86729 8.09709 5.28782C7.18884 8.12815 5.98407 12.1871 4.79156 17.0792C2.41033 26.8481 0.0600026 40.0115 0.250883 53.4601C0.441478 66.8886 3.16888 80.8055 11.143 91.8852C19.174 103.044 32.3352 111.06 52.8132 112.98L52.9998 110.989L53.1865 108.997C33.6655 107.167 21.6397 99.6222 14.3896 89.5486C7.08275 79.396 4.43508 66.4095 4.25048 53.4034C4.06617 40.4173 6.34052 27.6149 8.67777 18.0265C9.8445 13.2401 11.0224 9.27258 11.907 6.50612C12.3492 5.12325 12.7178 4.04149 12.9747 3.3087C13.1031 2.94234 13.2035 2.66329 13.2712 2.47754C13.305 2.38467 13.3307 2.31513 13.3475 2.26967C13.356 2.24694 13.3622 2.23024 13.3662 2.21964C13.3682 2.21435 13.3696 2.21058 13.3704 2.20835C13.3708 2.20724 13.371 2.20673 13.3712 2.20617C13.3713 2.20605 13.3712 2.20631 11.5 1.5ZM52.9998 110.989L52.8132 112.98C93.1597 116.762 128.569 109.326 153.877 100.956C166.535 96.7693 176.679 92.3452 183.668 88.9625C187.163 87.2709 189.87 85.8391 191.709 84.8268C192.628 84.3205 193.331 83.9191 193.806 83.6424C194.044 83.5041 194.226 83.3969 194.349 83.3234C194.41 83.2867 194.457 83.2583 194.49 83.2387C194.506 83.2289 194.519 83.2213 194.528 83.2159C194.532 83.2132 194.536 83.211 194.538 83.2094C194.539 83.2087 194.541 83.2079 194.541 83.2075C194.542 83.2069 194.543 83.2064 193.5 81.5C192.457 79.7936 192.457 79.7934 192.457 79.7934C192.457 79.7935 192.457 79.7936 192.456 79.7939C192.455 79.7946 192.453 79.7958 192.45 79.7976C192.444 79.8011 192.435 79.8069 192.422 79.8149C192.395 79.8307 192.355 79.8553 192.299 79.8883C192.189 79.9544 192.02 80.054 191.796 80.1847C191.346 80.4462 190.671 80.8321 189.78 81.3226C187.997 82.3038 185.353 83.7031 181.925 85.3621C175.07 88.6803 165.089 93.0346 152.621 97.1579C127.679 105.407 92.8381 112.715 53.1865 108.997L52.9998 110.989Z" fill="black"/>
</svg>
