<?xml version="1.0" encoding="UTF-8"?>
<svg id="_Слой_1" data-name="Слой 1" xmlns="http://www.w3.org/2000/svg" viewBox="0 0 1000 500">
  <defs>
    <style>
      .cls-1 {
        fill: #fff;
      }

      .cls-2 {
        fill: #089b87;
      }
    </style>
  </defs>
  <g>
    <path class="cls-2" d="m573.62,129.18v47.96c0,.15-.14.27-.32.27l-27.17-.03c-2.51,0-4.55-1.7-4.55-3.8v-5.84s-2.84,2.43-2.84,2.43l-7.1,6.07c-.86.73-2.03,1.14-3.25,1.14h-2.93s-27.5.01-27.5.01c-4.06,0-6.09-4.11-3.21-6.5l30.71-25.55,16.11-13.41,6.52-5.44c.85-.71,2.01-1.11,3.21-1.11h17.75c2.51,0,4.55,1.7,4.55,3.8Z"/>
    <path class="cls-2" d="m573.62,98.93v19.1c0,2.14-2.07,3.87-4.63,3.87h-19.78c-1.21,0-2.37.4-3.26,1.12l-7.19,5.99-56.76,47.24c-.86.72-2.05,1.12-3.26,1.12h-36.28c-4.1,0-6.16-4.15-3.26-6.58l58.49-48.9h-4.41c-1.21,0-2.37.4-3.26,1.12l-7.19,5.99-56.76,47.24c-.86.72-2.05,1.12-3.26,1.12h-36.28c-4.1,0-6.16-4.15-3.26-6.58l84.63-70.75c.86-.72,2.03-1.12,3.24-1.12h46.55v6.25l6.14-5.13c.86-.72,2.03-1.12,3.24-1.12h46.55Z"/>
  </g>
  <g>
    <path class="cls-1" d="m85.91,293.85v-72.37c0-1.68,1.36-3.04,3.04-3.04h10.71c.62,0,1.23.19,1.74.55l35.53,24.9h.55l35.53-24.9c.51-.36,1.12-.55,1.74-.55h10.71c1.68,0,3.04,1.36,3.04,3.04v72.37c0,1.68-1.36,3.04-3.04,3.04h-11.48c-1.68,0-3.04-1.36-3.04-3.04v-53.46l-23.56,15.77c-.84.56-1.35,1.51-1.35,2.52v35.17c0,1.68-1.36,3.04-3.04,3.04h-11.48c-1.68,0-3.04-1.36-3.04-3.04v-35.16c0-1.02-.51-1.96-1.35-2.53l-23.66-15.77v53.46c0,1.68-1.36,3.04-3.04,3.04h-11.48c-1.68,0-3.04-1.36-3.04-3.04Z"/>
    <path class="cls-1" d="m208.99,296.88c-5.92,0-10.46-1.5-13.6-4.5-3.14-3-4.72-7.28-4.72-12.84s1.57-9.73,4.72-12.73c3.14-3,7.68-4.5,13.6-4.5h42.13v-2.63c0-4.46-2.19-6.69-6.58-6.69h-43.48c-1.68,0-3.04-1.36-3.04-3.04v-6.54c0-1.68,1.36-3.04,3.04-3.04h47.65c6.65,0,11.37,1.52,14.15,4.55,2.78,3.04,4.17,7.3,4.17,12.78v36.13c0,1.68-1.36,3.04-3.04,3.04h-55Zm2.85-12.62h36.24c1.68,0,3.04-1.36,3.04-3.04v-3.25c0-1.68-1.36-3.04-3.04-3.04h-36.24c-1.39,0-2.47.42-3.24,1.26-.77.84-1.15,1.96-1.15,3.34s.38,2.52,1.15,3.4c.77.88,1.85,1.32,3.24,1.32Z"/>
    <path class="cls-1" d="m269,294.39v-6.54c0-1.68,1.36-3.04,3.04-3.04h50.72c3.07,0,4.61-1.72,4.61-5.16s-1.54-5.05-4.61-5.05h-34.78c-6.51,0-11.45-1.48-14.81-4.44-3.36-2.96-5.05-7.22-5.05-12.78s1.7-9.96,5.1-13c3.4-3.03,8.32-4.55,14.76-4.55h46.99c1.68,0,3.04,1.36,3.04,3.04v6.54c0,1.68-1.36,3.04-3.04,3.04h-46.22c-3.15,0-4.72,1.54-4.72,4.61,0,1.54.44,2.74,1.32,3.62.88.88,2.01,1.32,3.4,1.32h36.86c5.71,0,10.07,1.48,13.11,4.44s4.55,7.26,4.55,12.89-1.54,10.15-4.61,13.33c-3.07,3.18-7.42,4.77-13.06,4.77h-53.57c-1.68,0-3.04-1.36-3.04-3.04Z"/>
    <path class="cls-1" d="m373.77,296.88c-6.36,0-11.04-1.59-14.04-4.77-3-3.18-4.5-7.37-4.5-12.56v-26.55h-13.31c-1.68,0-3.04-1.36-3.04-3.04v-6.54c0-1.68,1.36-3.04,3.04-3.04h13.31v-14.3c0-1.68,1.36-3.04,3.04-3.04h9.84c1.68,0,3.04,1.36,3.04,3.04v14.3h20.44c1.68,0,3.04,1.36,3.04,3.04v6.54c0,1.68-1.36,3.04-3.04,3.04h-20.44v24.57c0,4.46,2.19,6.69,6.58,6.69h16.93c1.68,0,3.04,1.36,3.04,3.04v6.54c0,1.68-1.36,3.04-3.04,3.04h-20.88Z"/>
    <path class="cls-1" d="m426.65,297.43c-9.8,0-17.44-2.43-22.93-7.3-5.48-4.86-8.23-12.01-8.23-21.45s2.74-16.69,8.23-21.56c5.49-4.86,13.13-7.3,22.93-7.3h27.43c6.44,0,11.35,1.52,14.76,4.55,3.4,3.04,5.1,7.37,5.1,13,0,11.48-6.62,17.22-19.86,17.22h-37.02c-2.37,0-3.87,2.62-2.6,4.63,2.35,3.72,6.41,5.58,12.2,5.58h44.43v12.62h-44.43Zm0-44.98c-5.2,0-9.03,1.52-11.47,4.55-1.62,2.01-.24,5,2.34,5h35.79c1.46,0,2.61-.44,3.46-1.32.84-.88,1.26-2.08,1.26-3.62,0-3.07-1.57-4.61-4.72-4.61h-26.66Z"/>
    <path class="cls-1" d="m475.57,293.85v-50.43c0-1.68,1.36-3.04,3.04-3.04h40.19c6.36,0,11.04,1.59,14.04,4.77,3,3.18,4.5,7.37,4.5,12.56v8.7c0,1.68-1.36,3.04-3.04,3.04h-10.05c-1.68,0-3.04-1.36-3.04-3.04v-3.69c0-5.31-4.31-9.62-9.62-9.62h-16.86c-1.68,0-3.04,1.36-3.04,3.04v37.7c0,1.68-1.36,3.04-3.04,3.04h-10.05c-1.68,0-3.04-1.36-3.04-3.04Z"/>
    <path class="cls-1" d="m537.88,293.85v-50.43c0-1.68,1.36-3.04,3.04-3.04h70.14c6.44,0,11.15,1.59,14.15,4.77s4.5,7.37,4.5,12.56v36.13c0,1.68-1.36,3.04-3.04,3.04h-9.84c-1.68,0-3.04-1.36-3.04-3.04v-34.15c0-4.46-2.27-6.69-6.8-6.69h-15.25v40.85c0,1.68-1.36,3.04-3.04,3.04h-9.84c-1.68,0-3.04-1.36-3.04-3.04v-37.81c0-1.68-1.36-3.04-3.04-3.04h-19.01v40.85c0,1.68-1.36,3.04-3.04,3.04h-9.84c-1.68,0-3.04-1.36-3.04-3.04Z"/>
    <path class="cls-1" d="m632.89,228.02v-6.32c0-1.68,1.36-3.04,3.04-3.04h10.05c1.68,0,3.04,1.36,3.04,3.04v6.32c0,1.68-1.36,3.04-3.04,3.04h-10.05c-1.68,0-3.04-1.36-3.04-3.04Zm.11,65.82v-50.43c0-1.68,1.36-3.04,3.04-3.04h9.84c1.68,0,3.04,1.36,3.04,3.04v50.43c0,1.68-1.36,3.04-3.04,3.04h-9.84c-1.68,0-3.04-1.36-3.04-3.04Z"/>
    <path class="cls-1" d="m652.74,293.85v-50.43c0-1.68,1.36-3.04,3.04-3.04h46.22c6.44,0,11.14,1.59,14.1,4.77,2.96,3.18,4.44,7.37,4.44,12.56v36.13c0,1.68-1.36,3.04-3.04,3.04h-9.84c-1.68,0-3.04-1.36-3.04-3.04v-31.23c0-5.31-4.31-9.62-9.62-9.62h-26.36v40.85c0,1.68-1.36,3.04-3.04,3.04h-9.84c-1.68,0-3.04-1.36-3.04-3.04Z"/>
    <path class="cls-1" d="m752.79,296.88c-9.8,0-17.44-2.41-22.93-7.24-5.48-4.83-8.23-11.81-8.23-20.95s2.74-16.24,8.23-21.06c5.49-4.83,13.13-7.24,22.93-7.24h33.71c1.68,0,3.04,1.36,3.04,3.04v6.54c0,1.68-1.36,3.04-3.04,3.04h-33.71c-4.76,0-8.39,1.3-10.92,3.89-2.52,2.6-3.78,6.53-3.78,11.79s1.26,9.09,3.78,11.68c2.52,2.6,6.16,3.89,10.92,3.89h34.81c1.68,0,3.04,1.36,3.04,3.04v6.54c0,1.68-1.36,3.04-3.04,3.04h-34.81Zm24.68-3.04v-72.37c0-1.68,1.36-3.04,3.04-3.04h9.84c1.68,0,3.04,1.36,3.04,3.04v72.37c0,1.68-1.36,3.04-3.04,3.04h-9.84c-1.68,0-3.04-1.36-3.04-3.04Z"/>
    <path class="cls-1" d="m795.36,294.39v-6.54c0-1.68,1.36-3.04,3.04-3.04h50.72c3.07,0,4.61-1.72,4.61-5.16s-1.54-5.05-4.61-5.05h-34.78c-6.51,0-11.45-1.48-14.81-4.44-3.36-2.96-5.05-7.22-5.05-12.78s1.7-9.96,5.1-13c3.4-3.03,8.32-4.55,14.76-4.55h46.99c1.68,0,3.04,1.36,3.04,3.04v6.54c0,1.68-1.36,3.04-3.04,3.04h-46.22c-3.15,0-4.72,1.54-4.72,4.61,0,1.54.44,2.74,1.32,3.62.88.88,2.01,1.32,3.4,1.32h36.86c5.71,0,10.07,1.48,13.11,4.44,3.04,2.96,4.55,7.26,4.55,12.89s-1.54,10.15-4.61,13.33c-3.07,3.18-7.42,4.77-13.06,4.77h-53.57c-1.68,0-3.04-1.36-3.04-3.04Z"/>
  </g>
  <g>
    <path class="cls-1" d="m903.64,235.65c-1.04,0-1.93-.18-2.67-.54s-1.34-.83-1.8-1.42c-.46-.59-.81-1.22-1.02-1.91-.22-.68-.33-1.35-.33-1.99v-.34c0-.71.11-1.41.34-2.1.22-.69.57-1.31,1.03-1.88.46-.56,1.06-1.01,1.78-1.35.72-.34,1.58-.51,2.57-.51s1.93.19,2.71.56c.77.38,1.39.9,1.85,1.56.46.67.74,1.45.83,2.35h-2.25c-.07-.52-.25-.96-.54-1.31-.29-.35-.65-.63-1.09-.81-.44-.19-.94-.28-1.49-.28s-1.05.1-1.49.3-.8.47-1.09.83c-.29.35-.51.77-.66,1.25-.15.48-.23,1.01-.23,1.58s.08,1.08.23,1.56c.15.48.38.9.68,1.26.3.36.68.64,1.12.84.44.2.96.3,1.54.3.85,0,1.57-.21,2.16-.63s.94-1.01,1.06-1.77h2.25c-.1.81-.38,1.56-.83,2.24-.45.68-1.06,1.22-1.85,1.63-.78.41-1.71.61-2.8.61Z"/>
    <path class="cls-1" d="m903.6,240.24c-5.79,0-10.5-4.71-10.5-10.5s4.71-10.5,10.5-10.5,10.5,4.71,10.5,10.5-4.71,10.5-10.5,10.5Zm0-19.48c-4.96,0-8.99,4.03-8.99,8.99s4.03,8.99,8.99,8.99,8.99-4.03,8.99-8.99-4.03-8.99-8.99-8.99Z"/>
  </g>
  <g>
    <path class="cls-1" d="m174.75,380.63v-15.67h2.1v15.67h-2.1Z"/>
    <path class="cls-1" d="m217.69,380.63v-13.73h-4.49v-1.94h11.08v1.94h-4.49v13.73h-2.1Z"/>
    <path class="cls-1" d="m306.88,380.97c-1.63,0-3.04-.34-4.25-1.01-1.21-.67-2.15-1.63-2.82-2.85s-1-2.66-1-4.3c0-1.19.2-2.28.59-3.27.39-.99.95-1.86,1.68-2.59.72-.73,1.58-1.3,2.56-1.7s2.07-.6,3.25-.6,2.17.15,3.03.44c.86.29,1.61.7,2.24,1.23l-1.12,1.71c-.51-.45-1.11-.79-1.77-1.02-.67-.22-1.41-.33-2.22-.33-.92,0-1.75.14-2.5.43-.75.28-1.38.69-1.91,1.22-.53.53-.93,1.18-1.21,1.93-.29.75-.43,1.6-.43,2.55,0,1.29.25,2.4.75,3.31.5.92,1.22,1.62,2.14,2.1.93.48,2.02.72,3.28.72.81,0,1.59-.12,2.35-.36.75-.24,1.45-.64,2.11-1.19l.98,1.79c-.77.61-1.63,1.06-2.58,1.36-.95.3-2.01.45-3.16.45Z"/>
    <path class="cls-1" d="m356.19,380.97c-1.17,0-2.26-.21-3.26-.62-1-.41-1.87-.99-2.61-1.73-.74-.74-1.31-1.6-1.72-2.6-.41-.99-.62-2.07-.62-3.22s.21-2.24.62-3.23c.41-.99.98-1.86,1.72-2.6s1.61-1.31,2.61-1.72c1-.41,2.09-.61,3.26-.61s2.23.21,3.23.63c1,.42,1.87,1,2.62,1.75.74.75,1.32,1.61,1.74,2.6.41.99.62,2.06.62,3.2s-.21,2.23-.62,3.22c-.41.99-.99,1.86-1.74,2.6-.75.74-1.62,1.32-2.62,1.73-.99.41-2.07.62-3.23.62Zm0-2c.83,0,1.62-.15,2.35-.44s1.37-.71,1.91-1.25c.55-.54.97-1.19,1.28-1.96.31-.76.46-1.6.46-2.53,0-1.24-.27-2.32-.81-3.24-.54-.93-1.26-1.64-2.16-2.16-.91-.51-1.92-.77-3.04-.77-.84,0-1.63.15-2.36.44-.73.29-1.36.71-1.91,1.25s-.98,1.19-1.28,1.95c-.31.76-.46,1.6-.46,2.54,0,1.24.27,2.32.8,3.25.53.93,1.25,1.64,2.17,2.16.91.51,1.92.77,3.04.77Z"/>
    <path class="cls-1" d="m401.19,380.63v-15.67h1.97l8.39,11.98v-11.98h2.06v15.67h-1.97l-8.38-12.11v12.11h-2.07Z"/>
    <path class="cls-1" d="m456.39,380.97c-1.05,0-2.08-.15-3.08-.44s-1.85-.72-2.54-1.27l1.06-1.65c.39.32.83.59,1.32.82s1.01.39,1.57.51,1.11.18,1.68.18c1.11,0,2-.22,2.68-.65.68-.43,1.02-1.07,1.02-1.9,0-.61-.23-1.13-.68-1.55-.46-.42-1.29-.81-2.52-1.17l-1.7-.49c-1.44-.42-2.49-.97-3.15-1.64-.66-.68-.99-1.53-.99-2.56,0-.69.13-1.31.41-1.86.27-.55.66-1.03,1.16-1.43.5-.4,1.1-.7,1.78-.91.68-.21,1.43-.31,2.24-.31,1.01,0,1.94.15,2.81.44.87.29,1.59.68,2.16,1.17l-1.09,1.58c-.33-.28-.72-.53-1.15-.73-.43-.2-.89-.36-1.39-.47-.49-.11-.99-.16-1.5-.16-.68,0-1.28.1-1.8.3-.52.2-.92.49-1.21.87-.29.38-.43.85-.43,1.4,0,.39.09.73.28,1.02.19.29.51.57.97.81s1.1.49,1.91.73l1.81.54c1.39.41,2.42.95,3.08,1.62.66.67.98,1.54.98,2.62,0,.91-.22,1.71-.66,2.4-.45.69-1.09,1.23-1.94,1.61-.85.38-1.88.58-3.1.58Z"/>
    <path class="cls-1" d="m505.07,380.97c-1.38,0-2.53-.28-3.45-.85s-1.61-1.32-2.07-2.28c-.46-.96-.69-2.03-.69-3.2v-9.67h2.1v9.59c0,1.49.37,2.59,1.11,3.32.74.73,1.74,1.09,2.99,1.09s2.24-.36,2.98-1.09c.74-.73,1.11-1.83,1.11-3.32v-9.59h2.12v9.67c0,1.18-.23,2.24-.69,3.2-.46.96-1.15,1.72-2.07,2.28s-2.06.85-3.44.85Z"/>
    <path class="cls-1" d="m548.95,380.63v-15.67h2.1v13.73h7.01v1.93h-9.11Z"/>
    <path class="cls-1" d="m597.62,380.63v-13.73h-4.49v-1.94h11.08v1.94h-4.49v13.73h-2.1Z"/>
    <path class="cls-1" d="m640.55,380.63v-15.67h2.1v15.67h-2.1Z"/>
    <path class="cls-1" d="m680.45,380.63v-15.67h1.97l8.39,11.98v-11.98h2.06v15.67h-1.97l-8.38-12.11v12.11h-2.07Z"/>
    <path class="cls-1" d="m738.41,380.97c-1.25,0-2.41-.19-3.47-.58-1.06-.38-1.98-.93-2.77-1.65-.79-.71-1.4-1.57-1.83-2.57-.43-1-.65-2.12-.65-3.35s.21-2.36.63-3.36c.42-1,1-1.87,1.76-2.59s1.65-1.28,2.68-1.67c1.03-.39,2.16-.58,3.39-.58.57,0,1.14.05,1.71.14s1.13.24,1.68.44c.55.2,1.05.47,1.52.81l-.94,1.67c-.58-.37-1.21-.64-1.89-.82-.68-.18-1.37-.27-2.08-.27-.95,0-1.81.15-2.59.43-.77.29-1.44.7-1.99,1.24-.55.54-.97,1.19-1.27,1.96s-.44,1.63-.44,2.58c0,1.33.28,2.46.84,3.4.56.93,1.34,1.65,2.33,2.14,1,.49,2.15.74,3.46.74.68,0,1.28-.07,1.81-.2.53-.13.95-.28,1.25-.45v-4.12h-3.67v-1.79h5.58v7.1c-.39.27-.88.52-1.49.72-.61.21-1.23.36-1.87.47-.65.1-1.21.16-1.71.16Z"/>
  </g>
</svg>